<svg width="116" height="116" fill="none" xmlns="http://www.w3.org/2000/svg"><g clip-path="url(#clip0)"><path opacity=".1" d="M92.694 7.154v78.983c0 3.935-3.139 7.154-6.975 7.154H6.975C3.14 93.291 0 90.071 0 86.137V7.154C0 3.22 3.139 0 6.975 0H85.72c3.836 0 6.975 3.22 6.975 7.154z" fill="#EFBD0D"/><path fill-rule="evenodd" clip-rule="evenodd" d="M14.005 25.093c0-6.581 5.208-11.923 11.626-11.923h78.743c6.417 0 11.626 5.342 11.626 11.923v78.983c0 6.582-5.209 11.924-11.626 11.924H25.631c-6.418 0-11.626-5.342-11.626-11.924V25.094zm97.344 78.984V25.094c0-3.935-3.138-7.154-6.975-7.154H25.631c-3.837 0-6.976 3.22-6.976 7.154v78.983c0 3.935 3.14 7.154 6.976 7.154h78.743c3.837 0 6.975-3.219 6.975-7.154z" fill="#FFD84E"/><path fill-rule="evenodd" clip-rule="evenodd" d="M82.849 87.33a12.292 12.292 0 01-7.064-3.52L56.998 64.548a7.267 7.267 0 00-5.2-2.213h-2.06c-.677 0-1.226-.563-1.226-1.258v-2.514c0-.695.549-1.258 1.226-1.258h2.06c3.255-.005 6.378 1.315 8.683 3.672l7.652 7.87 7.652-7.87a12.293 12.293 0 017.064-3.52v-5.18a1.259 1.259 0 01.748-1.166 1.204 1.204 0 011.337.26l7.358 7.544c.47.497.47 1.288 0 1.785l-7.358 7.544c-.35.353-.872.457-1.326.265a1.258 1.258 0 01-.759-1.145v-4.828a7.308 7.308 0 00-3.58 2.012l-7.678 7.846 7.677 7.845a7.309 7.309 0 003.581 2.012v-4.828a1.259 1.259 0 01.748-1.165 1.204 1.204 0 011.337.26l7.358 7.544c.47.497.47 1.288 0 1.785l-7.358 7.544c-.35.352-.872.456-1.326.265a1.258 1.258 0 01-.759-1.145v-5.18zm-22.368-3.52l4.635-4.778-3.458-3.546-4.66 4.753a7.268 7.268 0 01-5.2 2.213h-2.06c-.677 0-1.226.563-1.226 1.257v2.515c0 .694.549 1.257 1.226 1.257h2.06c3.255.006 6.378-1.314 8.683-3.671z" fill="#FFD84E"/></g><defs><clipPath id="clip0"><path fill="#fff" d="M0 0h116v116H0z"/></clipPath></defs></svg>