<svg width="116" height="117" fill="none" xmlns="http://www.w3.org/2000/svg"><g clip-path="url(#clip0)" fill="#6DD6B0"><path opacity=".1" d="M92.694 7.808V86.79c0 3.935-3.139 7.155-6.975 7.155H6.975C3.14 93.945 0 90.725 0 86.79V7.808C0 3.873 3.139.653 6.975.653H85.72c3.836 0 6.975 3.22 6.975 7.155z"/><path fill-rule="evenodd" clip-rule="evenodd" d="M14.005 25.747c0-6.582 5.208-11.924 11.626-11.924h78.743c6.417 0 11.626 5.342 11.626 11.924v78.983c0 6.582-5.209 11.923-11.626 11.923H25.631c-6.418 0-11.626-5.341-11.626-11.923V25.747zm97.344 78.983V25.747c0-3.934-3.138-7.154-6.975-7.154H25.631c-3.837 0-6.976 3.22-6.976 7.154v78.983c0 3.935 3.14 7.154 6.976 7.154h78.743c3.837 0 6.975-3.219 6.975-7.154z"/><path fill-rule="evenodd" clip-rule="evenodd" d="M86.402 78.029h3.938a9.187 9.187 0 11-9.188 9.187V83.28h-10.5v3.937a9.187 9.187 0 11-9.187-9.187h3.937v-10.5h-3.937a9.188 9.188 0 119.187-9.188v3.938h10.5v-3.94a9.188 9.188 0 119.188 9.188h-3.938v10.5zm3.938-23.625a3.937 3.937 0 00-3.938 3.937v3.938h3.938a3.937 3.937 0 100-7.875zm-28.875 7.875a3.938 3.938 0 113.937-3.938v3.938h-3.937zm0 28.875a3.937 3.937 0 003.937-3.938V83.28h-3.937a3.937 3.937 0 100 7.875zm9.187-13.125v-10.5h10.5v10.5h-10.5zm15.75 9.187a3.938 3.938 0 103.938-3.937h-3.938v3.937z"/></g><defs><clipPath id="clip0"><path fill="#fff" transform="translate(0 .653)" d="M0 0h116v116H0z"/></clipPath></defs></svg>