<svg width="116" height="116" fill="none" xmlns="http://www.w3.org/2000/svg"><g clip-path="url(#clip0)" fill="#FB6363"><path opacity=".1" d="M92.694 7.154v78.983c0 3.935-3.139 7.154-6.975 7.154H6.975C3.14 93.291 0 90.071 0 86.137V7.154C0 3.22 3.139 0 6.975 0H85.72c3.836 0 6.975 3.22 6.975 7.154z"/><path fill-rule="evenodd" clip-rule="evenodd" d="M14.005 25.093c0-6.581 5.208-11.923 11.626-11.923h78.743c6.417 0 11.626 5.342 11.626 11.923v78.983c0 6.582-5.209 11.924-11.626 11.924H25.631c-6.418 0-11.626-5.342-11.626-11.924V25.094zm97.344 78.984V25.094c0-3.935-3.138-7.154-6.975-7.154H25.631c-3.837 0-6.976 3.22-6.976 7.154v78.983c0 3.935 3.14 7.154 6.976 7.154h78.743c3.837 0 6.975-3.219 6.975-7.154z"/><path fill-rule="evenodd" clip-rule="evenodd" d="M97 66.3a4.67 4.67 0 00-4.667-4.673H84.05a9.353 9.353 0 001.283-4.672h7a4.67 4.67 0 00-4.667-4.672H84.05A9.331 9.331 0 0076 47.666a9.331 9.331 0 00-8.05 4.615H62c-3.866 0-7 3.138-7 7.009v30.37a4.67 4.67 0 004.666 4.672h32.667A4.67 4.67 0 0097 89.661V66.3zM76 52.282a4.67 4.67 0 014.666 4.672A4.67 4.67 0 0176 61.627a4.67 4.67 0 01-4.667-4.672A4.67 4.67 0 0176 52.283zm-14 4.672a2.335 2.335 0 00-2.334 2.336A2.335 2.335 0 0062 61.627h5.95a9.354 9.354 0 01-1.284-4.672H62zm30.333 28.034H76a2.335 2.335 0 01-2.334-2.337v-9.344A2.335 2.335 0 0176 70.972h16.333v14.017zM79.5 80.316a1.167 1.167 0 01-1.167-1.168v-2.336c0-.645.522-1.168 1.167-1.168h2.333c.644 0 1.167.523 1.167 1.168v2.336c0 .645-.523 1.168-1.167 1.168H79.5z"/></g><defs><clipPath id="clip0"><path fill="#fff" d="M0 0h116v116H0z"/></clipPath></defs></svg>