<svg width="116" height="117" fill="none" xmlns="http://www.w3.org/2000/svg"><g clip-path="url(#clip0)" fill="#708CF0"><path opacity=".1" d="M92.694 7.808V86.79c0 3.935-3.139 7.155-6.975 7.155H6.975C3.14 93.945 0 90.725 0 86.79V7.808C0 3.873 3.139.653 6.975.653H85.72c3.836 0 6.975 3.22 6.975 7.155z"/><path fill-rule="evenodd" clip-rule="evenodd" d="M14.005 25.747c0-6.582 5.208-11.924 11.626-11.924h78.743c6.417 0 11.626 5.342 11.626 11.924v78.983c0 6.582-5.209 11.923-11.626 11.923H25.631c-6.418 0-11.626-5.341-11.626-11.923V25.747zm97.344 78.983V25.747c0-3.934-3.138-7.154-6.975-7.154H25.631c-3.837 0-6.976 3.22-6.976 7.154v78.983c0 3.935 3.14 7.154 6.976 7.154h78.743c3.837 0 6.975-3.219 6.975-7.154z"/><path fill-rule="evenodd" clip-rule="evenodd" d="M52.9 76.329a9.46 9.46 0 0112.508 1.108l23.865-24.095c.225-.235.535-.366.858-.36h.69c.658 0 1.192.537 1.192 1.202v3.607a7.25 7.25 0 01-2.097 5.097L78.008 74.912l2.5 2.525a9.46 9.46 0 0112.509-1.108c3.855 2.85 5.023 8.14 2.732 12.373-2.29 4.233-7.332 6.098-11.79 4.362-4.457-1.737-6.95-6.538-5.832-11.227h-2.382a2.37 2.37 0 01-1.667-.697l-1.12-1.13-1.119 1.13a2.37 2.37 0 01-1.667.697H67.79c1.119 4.69-1.375 9.49-5.832 11.227-4.457 1.736-9.5-.13-11.79-4.362-2.29-4.233-1.123-9.524 2.732-12.373zm38.28 10.598a4.844 4.844 0 00-.573-6.076 4.741 4.741 0 00-3.358-1.418c-2.273-.01-4.236 1.603-4.688 3.852-.453 2.25.732 4.508 2.829 5.394a4.738 4.738 0 005.79-1.752zm-35.87.705a4.837 4.837 0 01-1.533-4.777 4.787 4.787 0 013.517-3.552 4.737 4.737 0 014.732 1.548 4.837 4.837 0 011.533 4.778 4.787 4.787 0 01-3.517 3.551 4.737 4.737 0 01-4.732-1.548zm.476-34.65c.323-.006.633.125.858.36l13.361 13.514-5.05 5.098L56 62.888a7.25 7.25 0 01-2.096-5.097v-3.607c0-.665.534-1.203 1.191-1.203h.691z"/></g><defs><clipPath id="clip0"><path fill="#fff" transform="translate(0 .653)" d="M0 0h116v116H0z"/></clipPath></defs></svg>