<svg width="116" height="116" fill="none" xmlns="http://www.w3.org/2000/svg"><g clip-path="url(#clip0)" fill="#A66DF5"><path opacity=".1" d="M92.694 7.154v78.983c0 3.935-3.139 7.154-6.975 7.154H6.975C3.14 93.291 0 90.071 0 86.137V7.154C0 3.22 3.139 0 6.975 0H85.72c3.836 0 6.975 3.22 6.975 7.154z"/><path fill-rule="evenodd" clip-rule="evenodd" d="M14.005 25.093c0-6.581 5.208-11.923 11.626-11.923h78.743c6.417 0 11.626 5.342 11.626 11.923v78.983c0 6.582-5.209 11.924-11.626 11.924H25.631c-6.418 0-11.626-5.342-11.626-11.924V25.094zm97.344 78.984V25.094c0-3.935-3.138-7.154-6.975-7.154H25.631c-3.837 0-6.976 3.22-6.976 7.154v78.983c0 3.935 3.14 7.154 6.976 7.154h78.743c3.837 0 6.975-3.219 6.975-7.154z"/><path fill-rule="evenodd" clip-rule="evenodd" d="M69.394 58.573c0-4.072-3.271-7.378-7.308-7.378-4.02 0-7.291 3.306-7.308 7.378 0 4.072 3.271 7.378 7.308 7.378s7.308-3.306 7.308-7.378zm-27.65 31.095h56.013c.975 0 1.775-.8 1.775-1.775V73.939a2.25 2.25 0 00-.47-1.357L87.526 57.616c-.766-1.027-2.263-1.166-3.22-.313L63.983 75.26a2.225 2.225 0 01-2.697.192l-10.58-6.908a2.23 2.23 0 00-3.028.574l-7.76 10.962c-.261.383-.4.818-.4 1.288v6.073a2.232 2.232 0 002.227 2.227z"/></g><defs><clipPath id="clip0"><path fill="#fff" d="M0 0h116v116H0z"/></clipPath></defs></svg>