<svg width="116" height="117" fill="none" xmlns="http://www.w3.org/2000/svg"><g clip-path="url(#clip0)"><path opacity=".1" d="M92.694 7.808V86.79c0 3.935-3.139 7.155-6.975 7.155H6.975C3.14 93.945 0 90.725 0 86.79V7.808C0 3.873 3.139.653 6.975.653H85.72c3.836 0 6.975 3.22 6.975 7.155z" fill="#A66DF5"/><path fill-rule="evenodd" clip-rule="evenodd" d="M14.005 25.747c0-6.582 5.208-11.924 11.626-11.924h78.743c6.417 0 11.626 5.342 11.626 11.924v78.983c0 6.582-5.209 11.923-11.626 11.923H25.631c-6.418 0-11.626-5.341-11.626-11.923V25.747zm97.344 78.983V25.747c0-3.934-3.138-7.154-6.975-7.154H25.631c-3.837 0-6.976 3.22-6.976 7.154v78.983c0 3.935 3.14 7.154 6.976 7.154h78.743c3.837 0 6.975-3.219 6.975-7.154z" fill="#A02E8E"/><path fill-rule="evenodd" clip-rule="evenodd" d="M66.715 40.653h20.571a7.714 7.714 0 017.715 7.715V89.51a7.714 7.714 0 01-7.715 7.715H66.715a7.714 7.714 0 01-7.714-7.715V48.368a7.714 7.714 0 017.714-7.715zm0 51.429h20.571a2.572 2.572 0 002.572-2.572V48.368a2.572 2.572 0 00-5.143 0 2.571 2.571 0 01-2.571 2.571H71.858a2.571 2.571 0 01-2.572-2.571 2.571 2.571 0 10-5.142 0V89.51a2.571 2.571 0 002.571 2.572z" fill="#A02E8E"/></g><defs><clipPath id="clip0"><path fill="#fff" transform="translate(0 .653)" d="M0 0h116v116H0z"/></clipPath></defs></svg>